<svg width="34" height="19" viewBox="0 0 34 19" fill="none" xmlns="http://www.w3.org/2000/svg">
<path d="M33.2305 9.33984C33.2305 11.7826 32.4648 13.8424 30.9336 15.5195C29.4023 17.1966 27.4609 18.0352 25.1094 18.0352C21.737 18.0352 18.9206 16.0573 16.6602 12.1016C14.3815 15.9661 11.6562 17.8984 8.48438 17.8984C6.00521 17.8984 4.00911 17.0964 2.49609 15.4922C1.0013 13.888 0.253906 11.8008 0.253906 9.23047C0.253906 6.73307 1.01953 4.67318 2.55078 3.05078C4.10026 1.42839 6.07812 0.617188 8.48438 0.617188C11.7656 0.617188 14.5091 2.57682 16.7148 6.49609C18.9753 2.64974 21.7734 0.726562 25.1094 0.726562C27.5156 0.726562 29.4661 1.51953 30.9609 3.10547C32.474 4.69141 33.2305 6.76953 33.2305 9.33984ZM8.70312 14.2617C9.85156 14.2617 10.918 13.8698 11.9023 13.0859C12.8867 12.2839 13.8529 10.9987 14.8008 9.23047C13.9076 7.51693 12.9688 6.25 11.9844 5.42969C11.0182 4.60938 9.90625 4.19922 8.64844 4.19922C7.24479 4.19922 6.10547 4.68229 5.23047 5.64844C4.3737 6.59635 3.94531 7.80859 3.94531 9.28516C3.94531 10.7617 4.3737 11.9648 5.23047 12.8945C6.08724 13.806 7.24479 14.2617 8.70312 14.2617ZM24.7812 4.30859C23.6328 4.30859 22.5664 4.71875 21.582 5.53906C20.6159 6.34115 19.6497 7.60807 18.6836 9.33984C19.5768 11.0534 20.5156 12.3203 21.5 13.1406C22.4844 13.9609 23.5964 14.3711 24.8359 14.3711C26.2214 14.3711 27.3516 13.8971 28.2266 12.9492C29.1016 12.0013 29.5391 10.7982 29.5391 9.33984C29.5391 7.91797 29.1016 6.72396 28.2266 5.75781C27.3698 4.79167 26.2214 4.30859 24.7812 4.30859Z" fill="white"/>
</svg>
